<svg xmlns="http://www.w3.org/2000/svg" version="1.1" xmlns:xlink="http://www.w3.org/1999/xlink" xmlns:svgjs="http://svgjs.com/svgjs" width="1440" height="250" preserveAspectRatio="none" viewBox="0 0 1440 250">
    <g mask="url(&quot;#SvgjsMask1104&quot;)" fill="none">
        <rect width="1440" height="250" x="0" y="0" fill="rgba(245, 245, 245, 1)"></rect>
        <path d="M10 250L260 0L534.5 0L284.5 250z" fill="url(#SvgjsLinearGradient1105)"></path>
        <path d="M252.60000000000002 250L502.6 0L690.1 0L440.1 250z" fill="url(#SvgjsLinearGradient1105)"></path>
        <path d="M491.20000000000005 250L741.2 0L951.2 0L701.2 250z" fill="url(#SvgjsLinearGradient1105)"></path>
        <path d="M717.8000000000001 250L967.8000000000001 0L1303.8000000000002 0L1053.8000000000002 250z" fill="url(#SvgjsLinearGradient1105)"></path>
        <path d="M1417 250L1167 0L810 0L1060 250z" fill="url(#SvgjsLinearGradient1106)"></path>
        <path d="M1167.4 250L917.4000000000001 0L819.9000000000001 0L1069.9 250z" fill="url(#SvgjsLinearGradient1106)"></path>
        <path d="M954.8 250L704.8 0L485.79999999999995 0L735.8 250z" fill="url(#SvgjsLinearGradient1106)"></path>
        <path d="M722.1999999999999 250L472.19999999999993 0L127.19999999999993 0L377.19999999999993 250z" fill="url(#SvgjsLinearGradient1106)"></path>
        <path d="M1241.7135044645786 250L1440 51.713504464578506L1440 250z" fill="url(#SvgjsLinearGradient1105)"></path>
        <path d="M0 250L198.2864955354215 250L 0 51.713504464578506z" fill="url(#SvgjsLinearGradient1106)"></path>
    </g>
    <defs>
        <mask id="SvgjsMask1104">
            <rect width="1440" height="250" fill="#ffffff"></rect>
        </mask>
        <linearGradient x1="0%" y1="100%" x2="100%" y2="0%" id="SvgjsLinearGradient1105">
            <stop stop-color="rgba(5, 150, 105, 1)" offset="0"></stop>
            <stop stop-opacity="0" stop-color="rgba(5, 150, 105, 1)" offset="0.66"></stop>
        </linearGradient>
        <linearGradient x1="100%" y1="100%" x2="0%" y2="0%" id="SvgjsLinearGradient1106">
            <stop stop-color="rgba(5, 150, 105, 1)" offset="0"></stop>
            <stop stop-opacity="0" stop-color="rgba(5, 150, 105, 1)" offset="0.66"></stop>
        </linearGradient>
    </defs>
</svg>